Coordinates
version=1
nRows=13
nColumns=34
inDegrees=yes

Units are S.I. units (second, meters, Newtons, ...)
If the header above contains a line with 'inDegrees', this indicates whether rotational values are in degrees (yes) or radians (no).

endheader
time	pelvis_tilt	pelvis_list	pelvis_rotation	pelvis_tx	pelvis_ty	pelvis_tz	hip_flexion_r	hip_adduction_r	hip_rotation_r	knee_angle_r	ankle_angle_r	subtalar_angle_r	mtp_angle_r	hip_flexion_l	hip_adduction_l	hip_rotation_l	knee_angle_l	ankle_angle_l	subtalar_angle_l	mtp_angle_l	lumbar_extension	lumbar_bending	lumbar_rotation	arm_flex_r	arm_add_r	arm_rot_r	elbow_flex_r	pro_sup_r	arm_flex_l	arm_add_l	arm_rot_l	elbow_flex_l	pro_sup_l
      5.40000000	    -10.01358124	      1.11339355	     -2.09411896	      1.85239754	      0.91379672	     -0.00816610	      5.11916223	     -3.65657385	     -5.73563879	      3.60111939	     -7.86126487	    -10.76869390	      0.00000000	      8.15169409	     -6.59813117	     -0.66142011	      5.88294052	    -12.11709639	     -4.60383925	      0.00000000	     -0.27453064	     -3.26464215	     -5.86775019	     97.21877221	    -15.05439690	     24.82871993	     92.51597322	     84.29341048	     46.70497859	     -4.22507651	     58.57130145	     99.29584452	     89.26712082
      5.41666670	    -10.00924614	      1.25179144	     -2.64675319	      1.85470772	      0.91253938	     -0.00884846	      5.21409669	     -3.79556529	     -5.13223680	      3.75679345	     -7.91986947	    -11.16931893	      0.00000000	      7.85194861	     -6.50588444	     -0.72535729	      5.87118615	    -11.95876364	     -4.81354705	      0.00000000	     -0.29074738	     -3.60550401	     -5.92898297	     89.54195240	    -16.02178107	     22.28105683	     97.05761748	     85.03042507	     43.39213026	     -4.41382891	     58.70281552	     96.52717373	     87.71838381
      5.43333330	     -9.97997674	      1.23893871	     -3.11695556	      1.85668840	      0.91002480	     -0.00887137	      5.21571984	     -3.77648225	     -4.55008054	      3.81183395	     -8.14255672	    -11.56897091	      0.00000000	      7.55208907	     -6.55794885	     -0.70127507	      5.91280139	    -11.94497485	     -5.09301950	      0.00000000	     -0.37739804	     -3.78149743	     -5.63105958	     82.03896869	    -17.22938517	     20.43386338	    100.77356214	     85.72953950	     40.45891104	     -4.32498940	     58.81339775	     93.61408843	     85.57043472
      5.45000000	     -9.88252839	      1.20984285	     -3.59619610	      1.85823596	      0.90756383	     -0.00791751	      5.09729418	     -3.75022336	     -3.98059235	      3.84598989	     -8.18234911	    -11.88135316	      0.00000000	      7.16621711	     -6.59841135	     -0.59968997	      5.98778137	    -11.62981548	     -5.71171351	      0.00000000	     -0.57639579	     -3.57926457	     -5.56876811	     75.24565318	    -17.54545575	     19.46209436	    102.76551255	     85.76249502	     36.70800198	     -4.79113476	     57.48717013	     91.12244226	     84.55122794
      5.46666670	    -10.00758878	      1.24941053	     -4.00941144	      1.85927899	      0.90587928	     -0.00642808	      5.26819438	     -3.75517034	     -3.53231768	      4.01914784	     -8.15800455	    -12.33710227	      0.00000000	      7.08784638	     -6.59387099	     -0.51461399	      6.09134339	    -11.48685478	     -6.45853778	      0.00000000	     -0.36092011	     -3.48980895	     -4.95543696	     67.93416382	    -17.97500918	     18.02133646	    103.92728967	     85.59563100	     33.32999883	     -5.35672798	     56.71149910	     87.84969891	     83.46768283
      5.48333330	    -10.28309406	      1.39944949	     -4.32407442	      1.86043041	      0.90576259	     -0.00488314	      5.60047569	     -3.84261060	     -3.40532715	      4.24031766	     -8.11575802	    -12.74484372	      0.00000000	      7.16651669	     -6.51989624	     -0.35962690	      6.08332681	    -11.63360281	     -7.12177224	      0.00000000	      0.09441667	     -3.61256723	     -3.64339086	     59.78295671	    -18.94829145	     15.89159360	    104.91087776	     85.03987605	     30.58287202	     -5.66708387	     56.75373290	     83.60863882	     81.52677899
      5.50000000	    -10.21632518	      1.43446921	     -4.55612228	      1.86195323	      0.90800436	     -0.00307667	      5.28640154	     -3.78058911	     -3.41511042	      3.96272445	     -8.08082196	    -12.67663092	      0.00000000	      6.85895136	     -6.60175287	     -0.41823326	      6.00001632	    -11.94042042	     -7.41738125	      0.00000000	      0.21050773	     -3.31027376	     -3.17389868	     52.44217716	    -18.38988738	     14.58560364	    102.81510391	     84.67817622	     27.07657123	     -6.45559039	     54.90940175	     79.59948017	     80.74902912
      5.51666670	    -10.28444159	      1.50415860	     -4.66822778	      1.86386463	      0.91070642	     -0.00102352	      5.10184844	     -3.72732848	     -3.42513636	      3.67769680	     -7.95054374	    -12.51995510	      0.00000000	      6.73136762	     -6.67560339	     -0.30319707	      5.91417834	    -12.23668517	     -7.54540790	      0.00000000	      0.34826188	     -3.15834947	     -2.77771518	     44.82189720	    -17.54820224	     12.83693244	    100.20974448	     84.24346993	     23.84627095	     -7.22091312	     53.24254981	     75.48179727	     79.98351479
      5.53333330	    -10.26438493	      1.51118058	     -4.72670493	      1.86567929	      0.91245550	      0.00024282	      4.78722708	     -3.61426764	     -3.22316237	      3.35164647	     -7.62792494	    -12.28146572	      0.00000000	      6.53982602	     -6.79855247	     -0.18009052	      5.86613990	    -12.34171858	     -7.55854368	      0.00000000	      0.17120855	     -3.01257704	     -2.43220433	     37.41448290	    -16.57214852	     10.55479458	     97.09771926	     83.70478810	     21.23138238	     -7.68915709	     51.97883732	     70.98671428	     79.06131802
      5.55000000	    -10.20408100	      1.53901905	     -4.73743059	      1.86686848	      0.91279333	     -0.00021105	      4.47319274	     -3.57266224	     -3.34175393	      3.06821226	     -7.55901728	    -12.03550037	      0.00000000	      6.30249642	     -6.85401359	     -0.01314273	      5.72009768	    -12.56345412	     -7.35563824	      0.00000000	     -0.21746778	     -2.98641215	     -1.68129023	     30.32430471	    -16.08812107	      7.90137678	     93.61775507	     83.00984675	     19.49543725	     -7.64777079	     51.13021872	     66.03232430	     77.73175106
      5.56666670	     -9.79969158	      1.52854320	     -4.80946946	      1.86763195	      0.91265896	     -0.00256825	      3.78818554	     -3.59878795	     -3.22816812	      2.74167132	     -7.41800361	    -11.85447404	      0.00000000	      5.71430913	     -6.79943684	     -0.03808573	      5.56402567	    -12.67167479	     -7.43384300	      0.00000000	     -1.11743227	     -2.71456135	     -1.36681534	     24.69998595	    -15.44828322	      5.48976720	     88.66274364	     82.53349262	     17.58183979	     -7.45779045	     49.40084852	     61.79873032	     76.96214718
      5.58333330	     -9.45898540	      1.57692874	     -4.90101658	      1.86897692	      0.91156842	     -0.00559181	      3.29584588	     -3.79246034	     -3.29682473	      2.63368008	     -7.32137654	    -11.67920020	      0.00000000	      5.25426596	     -6.57937244	     -0.08647725	      5.50781915	    -12.69891829	     -7.74365606	      0.00000000	     -1.89309240	     -2.42959400	     -0.92488261	     19.54902028	    -15.13813093	      3.66405756	     83.60452685	     82.13547978	     15.58902207	     -6.92861344	     46.98855751	     57.54391342	     76.26620660
      5.60000000	     -9.17999040	      1.68217546	     -4.94692415	      1.87159630	      0.90994993	     -0.00765723	      2.84480624	     -4.08188562	     -3.28000034	      2.55557805	     -7.12076232	    -11.56969871	      0.00000000	      4.83306277	     -6.24009915	      0.12868572	      5.45341177	    -12.61797209	     -8.21217581	      0.00000000	     -2.40797317	     -2.11579910	     -0.72771946	     14.62586075	    -14.49774024	      2.37365508	     78.35402691	     81.79555214	     13.42997380	     -6.86594373	     44.21834927	     53.50039617	     75.58303426
